<svg xmlns="http://www.w3.org/2000/svg" xmlns:xlink="http://www.w3.org/1999/xlink" preserveAspectRatio="xMidYMid meet" version="1.0" viewBox="-0.0 -0.0 277.0 197.1" zoomAndPan="magnify" style="fill: rgb(204, 146, 31);" original_string_length="1817"><g id="__id132_sx5gij3wkj"><path d="m265.12 488.93-9.8688-3.8879-3.9512 1.0372-2.556 7.2259-8.5842-5.9834-1.5347 1.7979 0.33701 8.8554 6.7047 8.5789-1.6847 13.093 0.50818 19.627 3.0009 3.5695-0.73958 24.484 4.8567 1.2478 9.8662-2.456-0.2 5.499 4.2487-1.2872 8.3998-7.8235 2.5429-10.261 14.675-0.6608 7.647-15.06 15.186-3.3748-1.7584 7.5707-1.4004 9.8082-13.578 7.0996-12.209 7.2181-13.006 6.8732-6.7678 11.274 1.032 19.948 11.832-0.24062 1.6746-6.0376 4.8777-5.3701 17.945-9.7557 20.317-2.1034 18.637-5.0069 11.627-3.6828 12.938 28.977-3.601 12.928-12.58 1.9454-5.628 4.4777-3.6642 4.096 3.359 5.807 8.1419 1.532 22.138-0.84246 4.7488-0.69235 1.5689-5.3806 9.0527-12.18 5.341-7.5365 1.4688-16.974 2.5902-10.809-0.94769-17.734-0.466-4.1776 5.9045 1.89 9.9162 3.3404 7.189-0.20539 8.5342 0.18678-2.2349 6.702-4.5302 10.916-2.0164 16.926-0.23417 9.0817 1.7874 4.8436-0.99772 5.1542-0.87926 3.7854-4.962 3.1562-5.3911 1.74-4.7488 0.69237-2.4744 3.0957-0.0578 3.8564 2.298 2.1296 5.9519 1.3425 24.507 0.46585 12.878-2.1955 3.9012-6.8337 1.532-8.142 10.422-12.062 5.1989-5.8939-2.1164 5.3332 0.50283 6.939 5.9649 4.3776 0.28703 3.0588-7.2127 0.47914-5.6885 1.9901-3.8906 3.5248-2.2849 0.9055 3.4774 4.4382 4.5119 2.0454 7.6181 1.2109 7.01-1.3241 13.996-2.3745 14.791-8.3736 0.53165-9.3318-4.4831-18.316 0.7476-5.4516 0.12365-17.366 4.3276-11.762 8.2945-32.104-1.5927-23.031-11.08-24.955-20.635-19.714-30.133-18.329-31.115-3.7958-27.398 4.2488-20.922 5.9124-29.591-2.2847-20.696 6.4837-29.68 11.498-20.846 17.779z" transform="translate(-238.63 -436.23)" style="fill: inherit;"/></g></svg>